<?xml version="1.0" encoding="utf-8"?>
<!-- Generator: Adobe Illustrator 26.5.0, SVG Export Plug-In . SVG Version: 6.00 Build 0)  -->
<svg version="1.1" id="Layer_1" xmlns="http://www.w3.org/2000/svg" xmlns:xlink="http://www.w3.org/1999/xlink" x="0px" y="0px"
	 viewBox="0 0 512 512" style="enable-background:new 0 0 512 512;" xml:space="preserve">
<style type="text/css">
	.st0{fill:#FFFFFF;}
	.st1{fill:#ED1C24;}
</style>
<path class="st0" d="M257.5,422.9c-0.5,0-0.9,0-1.4,0c-99.1,0-179.5-80.4-179.5-179.5S157,63.9,256.1,63.9s179.5,80.4,179.5,179.5
	c0,0.2,32.9,0.2,32.9,0C468.6,126.1,373.5,31,256.2,31S43.8,126.1,43.8,243.4s95.1,212.4,212.4,212.4c0.5,0,0.9,0,1.4,0L257.5,422.9
	L257.5,422.9z"/>
<path class="st1" d="M457.1,248.5L457.1,248.5c-14.9,2.8-29.2-7.1-31.9-22l-6-32.3c-2.8-14.9,7.1-29.2,22-31.9l0,0
	c14.9-2.8,29.2,7.1,31.9,22l6,32.3C481.9,231.4,472,245.7,457.1,248.5z"/>
<path class="st1" d="M76.6,175.7c6.5-1.4,13-1.8,19.1-1.4c5.2,0.3,8.6,5.5,6.9,10.4c-6.5,18.6-10.1,38.5-10.1,59.3
	c0,22,4,43.1,11.3,62.6c1.1,3.1-1,6.3-4.2,6.7c-2.8,0.3-5.6,0.5-8.4,0.5c-40.6,0-73.2-34.7-69.6-76C24,207.6,46.7,182,76.6,175.7z"
	/>
<circle class="st1" cx="257.5" cy="436.6" r="32.9"/>
</svg>
