<?xml version="1.0" encoding="iso-8859-1"?>
<!-- Generator: Adobe Illustrator 26.5.0, SVG Export Plug-In . SVG Version: 6.00 Build 0)  -->
<svg version="1.1" id="Layer_1" xmlns="http://www.w3.org/2000/svg" xmlns:xlink="http://www.w3.org/1999/xlink" x="0px" y="0px"
	 viewBox="0 0 338.5 69" style="enable-background:new 0 0 338.5 69;" xml:space="preserve">
<g style="enable-background:new    ;">
	<path style="fill:#FFFFFF;" d="M48.4,40.3c1.4-2.7,3.4-4.8,5.9-6.2c2.5-1.5,5.3-2.2,8.4-2.2c3,0,5.7,0.7,7.9,2c2.2,1.3,3.9,3,5,4.9
		v-6.3h5.8v34.6h-5.8v-6.4c-1.1,2-2.8,3.7-5.1,5c-2.3,1.3-4.9,2-7.9,2c-3.1,0-5.9-0.8-8.3-2.3c-2.5-1.5-4.4-3.6-5.9-6.4
		c-1.4-2.7-2.1-5.9-2.1-9.4C46.3,46.1,47,43,48.4,40.3z M74,42.9c-1.1-1.9-2.5-3.4-4.3-4.5c-1.8-1-3.8-1.5-5.9-1.5s-4.1,0.5-5.9,1.5
		c-1.8,1-3.2,2.5-4.2,4.4c-1.1,1.9-1.6,4.2-1.6,6.8c0,2.7,0.5,5,1.6,6.9c1.1,2,2.5,3.5,4.2,4.5c1.8,1,3.7,1.5,5.9,1.5
		c2.2,0,4.1-0.5,5.9-1.5s3.2-2.5,4.3-4.5c1.1-2,1.6-4.2,1.6-6.9C75.6,47.1,75.1,44.8,74,42.9z"/>
	<path style="fill:#FFFFFF;" d="M96.9,20.3v46.8h-5.8V20.3H96.9z"/>
	<path style="fill:#FFFFFF;" d="M112.5,20.3v46.8h-5.8V20.3H112.5z"/>
</g>
<g style="enable-background:new    ;">
	<path style="fill:#FFFFFF;" d="M122.3,33.1c1.9-3.4,4.5-6.1,7.9-8s7.2-2.9,11.5-2.9c5.3,0,9.8,1.4,13.5,4.2s6.3,6.6,7.5,11.4h-11.9
		c-0.9-1.9-2.1-3.3-3.8-4.2c-1.6-1-3.5-1.5-5.5-1.5c-3.3,0-6,1.2-8.1,3.5s-3.1,5.4-3.1,9.3s1,7,3.1,9.3s4.8,3.5,8.1,3.5
		c2.1,0,3.9-0.5,5.5-1.5s2.9-2.4,3.8-4.2h11.9c-1.3,4.8-3.8,8.6-7.5,11.3c-3.8,2.8-8.3,4.1-13.5,4.1c-4.3,0-8.1-1-11.5-2.9
		c-3.4-1.9-6-4.6-7.9-8s-2.8-7.3-2.8-11.7C119.5,40.4,120.4,36.5,122.3,33.1z"/>
	<path style="fill:#FFFFFF;" d="M202.5,52H178c0.2,2.2,0.9,3.9,2.1,5c1.2,1.2,2.8,1.7,4.6,1.7c2.7,0,4.6-1.1,5.6-3.4h11.5
		c-0.6,2.3-1.7,4.4-3.2,6.3c-1.5,1.9-3.5,3.3-5.8,4.4s-4.9,1.6-7.8,1.6c-3.5,0-6.5-0.7-9.2-2.2s-4.8-3.6-6.3-6.3s-2.3-5.9-2.3-9.6
		s0.7-6.9,2.2-9.6c1.5-2.7,3.6-4.8,6.3-6.3s5.8-2.2,9.3-2.2c3.4,0,6.4,0.7,9.1,2.1c2.7,1.4,4.7,3.5,6.2,6.1c1.5,2.7,2.2,5.8,2.2,9.3
		C202.7,49.9,202.6,50.9,202.5,52z M191.6,46c0-1.9-0.6-3.3-1.9-4.4c-1.3-1.1-2.8-1.6-4.7-1.6c-1.8,0-3.3,0.5-4.6,1.6
		c-1.2,1.1-2,2.5-2.3,4.5L191.6,46L191.6,46z"/>
	<path style="fill:#FFFFFF;" d="M239.8,35.4c2.5,2.7,3.7,6.4,3.7,11V67h-10.7V47.9c0-2.4-0.6-4.2-1.8-5.5s-2.9-2-4.9-2
		c-2.1,0-3.7,0.7-4.9,2s-1.8,3.1-1.8,5.5v19.2h-10.8V31.8h10.8v4.7c1.1-1.6,2.6-2.8,4.4-3.7c1.9-0.9,3.9-1.4,6.3-1.4
		C234,31.4,237.3,32.8,239.8,35.4z"/>
	<path style="fill:#FFFFFF;" d="M270.6,57.9v9.2h-5.5c-3.9,0-7-1-9.2-2.9s-3.3-5-3.3-9.4v-14h-4.3v-9h4.3v-8.6h10.8v8.6h7.1v9h-7.1
		V55c0,1.1,0.3,1.8,0.8,2.3s1.3,0.7,2.5,0.7L270.6,57.9L270.6,57.9z"/>
	<path style="fill:#FFFFFF;" d="M309.7,52h-24.5c0.2,2.2,0.9,3.9,2.1,5c1.2,1.2,2.8,1.7,4.6,1.7c2.7,0,4.6-1.1,5.6-3.4H309
		c-0.6,2.3-1.7,4.4-3.2,6.3c-1.5,1.9-3.5,3.3-5.8,4.4s-4.9,1.6-7.8,1.6c-3.5,0-6.5-0.7-9.2-2.2s-4.8-3.6-6.3-6.3s-2.3-5.9-2.3-9.6
		s0.7-6.9,2.2-9.6c1.5-2.7,3.6-4.8,6.3-6.3c2.7-1.5,5.8-2.2,9.3-2.2c3.4,0,6.4,0.7,9.1,2.1c2.7,1.4,4.7,3.5,6.2,6.1
		c1.5,2.7,2.2,5.8,2.2,9.3C309.9,49.9,309.8,50.9,309.7,52z M298.8,46c0-1.9-0.6-3.3-1.9-4.4c-1.3-1.1-2.8-1.6-4.7-1.6
		c-1.8,0-3.3,0.5-4.6,1.6c-1.2,1.1-2,2.5-2.3,4.5L298.8,46L298.8,46z"/>
	<path style="fill:#FFFFFF;" d="M331.1,33.1c1.9-1.1,4-1.7,6.3-1.7v11.4h-3c-2.7,0-4.7,0.6-6.1,1.7c-1.3,1.2-2,3.2-2,6.1V67h-10.8
		V31.8h10.8v5.9C327.6,35.7,329.2,34.2,331.1,33.1z"/>
</g>
<g>
	<path style="fill:#FFFFFF;" d="M36.6,60c-0.1,0-0.1,0-0.2,0c-14.9,0-27-12.1-27-27s12.1-27,27-27s27,12.1,27,27h5
		c0-17.7-14.3-32-32-32s-32,14.3-32,32s14.3,32,32,32c0.1,0,0.1,0,0.2,0C36.6,65,36.6,60,36.6,60z"/>
	<path style="fill:#ED1C24;" d="M66.6,33.8L66.6,33.8c-2.2,0.4-4.4-1.1-4.8-3.3l-0.9-4.9c-0.4-2.2,1.1-4.4,3.3-4.8l0,0
		c2.2-0.4,4.4,1.1,4.8,3.3l0.9,4.9C70.4,31.2,68.9,33.3,66.6,33.8z"/>
	<path style="fill:#ED1C24;" d="M9.4,22.8c1-0.2,1.9-0.3,2.9-0.2c0.8,0.1,1.3,0.8,1,1.6c-1,2.8-1.5,5.8-1.5,8.9
		c0,3.3,0.6,6.5,1.7,9.4c0.2,0.5-0.1,1-0.6,1c-0.4,0.1-0.8,0.1-1.3,0.1c-6.1,0-11-5.2-10.5-11.4C1.5,27.6,4.9,23.7,9.4,22.8z"/>
	<circle style="fill:#ED1C24;" cx="36.6" cy="62.1" r="4.9"/>
</g>
</svg>
