<?xml version="1.0" encoding="utf-8"?>
<!-- Generator: Adobe Illustrator 24.3.0, SVG Export Plug-In . SVG Version: 6.00 Build 0)  -->
<svg version="1.1" id="Layer_1" xmlns="http://www.w3.org/2000/svg" xmlns:xlink="http://www.w3.org/1999/xlink" x="0px" y="0px"
	 viewBox="0 0 422.6 63" style="enable-background:new 0 0 422.6 63;" xml:space="preserve">
<style type="text/css">
	.st0{enable-background:new    ;}
	.st1{fill:#0093DD;}
</style>
<g class="st0">
	<path d="M76.7,54.2c0.6-0.1,1.4-0.2,2.2-0.2c1.5,0,2.6,0.3,3.3,1c0.7,0.7,1.1,1.6,1.1,2.9c0,1.3-0.4,2.4-1.2,3.1
		c-0.8,0.8-2,1.2-3.6,1.2c-0.7,0-1.4,0-1.9-0.1V54.2z M77.7,61.4c0.3,0,0.6,0.1,1.1,0.1c2.2,0,3.4-1.2,3.4-3.4
		c0-1.9-1.1-3.1-3.3-3.1c-0.5,0-0.9,0-1.2,0.1V61.4z"/>
	<path d="M92.1,54.1v8.1h-1v-8.1H92.1z"/>
	<path d="M100.2,54.2c0.5-0.1,1.3-0.2,2-0.2c1.1,0,1.8,0.2,2.3,0.7c0.4,0.4,0.6,0.9,0.6,1.5c0,1.1-0.7,1.8-1.5,2.1v0
		c0.6,0.2,1,0.8,1.2,1.6c0.3,1.1,0.5,1.9,0.6,2.2h-1.1c-0.1-0.2-0.3-0.9-0.5-1.9c-0.2-1.1-0.7-1.5-1.6-1.6h-1v3.5h-1V54.2z
		 M101.3,57.9h1.1c1.1,0,1.8-0.6,1.8-1.5c0-1-0.8-1.5-1.9-1.5c-0.5,0-0.9,0-1,0.1V57.9z"/>
	<path d="M117.2,58.4h-3.1v2.9h3.5v0.9h-4.5v-8.1h4.4V55h-3.3v2.6h3.1V58.4z"/>
	<path d="M131,61.9c-0.4,0.2-1.2,0.4-2.1,0.4c-2.3,0-4-1.4-4-4.1c0-2.5,1.7-4.2,4.2-4.2c1,0,1.6,0.2,1.9,0.4l-0.3,0.9
		c-0.4-0.2-1-0.3-1.6-0.3c-1.9,0-3.2,1.2-3.2,3.3c0,2,1.1,3.3,3.1,3.3c0.6,0,1.3-0.1,1.7-0.3L131,61.9z"/>
	<path d="M140.5,55H138v-0.9h6V55h-2.5v7.2h-1.1V55z"/>
	<path d="M167.1,58.1c0,2.8-1.7,4.3-3.8,4.3c-2.1,0-3.6-1.7-3.6-4.1c0-2.6,1.6-4.2,3.8-4.2C165.7,54,167.1,55.7,167.1,58.1z
		 M160.8,58.2c0,1.7,0.9,3.3,2.6,3.3c1.7,0,2.6-1.5,2.6-3.4c0-1.6-0.8-3.3-2.6-3.3C161.7,54.8,160.8,56.4,160.8,58.2z"/>
	<path d="M175.9,54.1v4.8c0,1.8,0.8,2.6,1.9,2.6c1.2,0,2-0.8,2-2.6v-4.8h1.1v4.7c0,2.5-1.3,3.5-3.1,3.5c-1.7,0-2.9-0.9-2.9-3.5v-4.8
		H175.9z"/>
	<path d="M190.5,55H188v-0.9h6V55h-2.5v7.2h-1.1V55z"/>
	<path d="M201.1,60.9c0.5,0.3,1.2,0.5,1.9,0.5c1.1,0,1.7-0.6,1.7-1.4c0-0.8-0.4-1.2-1.5-1.6c-1.3-0.5-2.1-1.2-2.1-2.3
		c0-1.3,1-2.2,2.6-2.2c0.8,0,1.4,0.2,1.8,0.4l-0.3,0.9c-0.3-0.1-0.8-0.4-1.5-0.4c-1.1,0-1.5,0.7-1.5,1.2c0,0.8,0.5,1.1,1.6,1.6
		c1.4,0.5,2.1,1.2,2.1,2.4c0,1.2-0.9,2.3-2.8,2.3c-0.8,0-1.6-0.2-2.1-0.5L201.1,60.9z"/>
	<path d="M220.4,58.1c0,2.8-1.7,4.3-3.8,4.3c-2.1,0-3.6-1.7-3.6-4.1c0-2.6,1.6-4.2,3.8-4.2C219,54,220.4,55.7,220.4,58.1z
		 M214.1,58.2c0,1.7,0.9,3.3,2.6,3.3c1.7,0,2.6-1.5,2.6-3.4c0-1.6-0.8-3.3-2.6-3.3C215,54.8,214.1,56.4,214.1,58.2z"/>
	<path d="M229.2,54.1v4.8c0,1.8,0.8,2.6,1.9,2.6c1.2,0,2-0.8,2-2.6v-4.8h1.1v4.7c0,2.5-1.3,3.5-3.1,3.5c-1.7,0-2.9-0.9-2.9-3.5v-4.8
		H229.2z"/>
	<path d="M242.2,54.2c0.5-0.1,1.3-0.2,2-0.2c1.1,0,1.8,0.2,2.3,0.7c0.4,0.4,0.6,0.9,0.6,1.5c0,1.1-0.7,1.8-1.5,2.1v0
		c0.6,0.2,1,0.8,1.2,1.6c0.3,1.1,0.5,1.9,0.6,2.2h-1.1c-0.1-0.2-0.3-0.9-0.5-1.9c-0.2-1.1-0.7-1.5-1.6-1.6h-1v3.5h-1V54.2z
		 M243.3,57.9h1.1c1.1,0,1.8-0.6,1.8-1.5c0-1-0.8-1.5-1.9-1.5c-0.5,0-0.9,0-1,0.1V57.9z"/>
	<path d="M260.7,61.9c-0.4,0.2-1.2,0.4-2.1,0.4c-2.3,0-4-1.4-4-4.1c0-2.5,1.7-4.2,4.2-4.2c1,0,1.6,0.2,1.9,0.4l-0.3,0.9
		c-0.4-0.2-1-0.3-1.6-0.3c-1.9,0-3.2,1.2-3.2,3.3c0,2,1.1,3.3,3.1,3.3c0.6,0,1.3-0.1,1.7-0.3L260.7,61.9z"/>
	<path d="M269.4,54.1v8.1h-1v-8.1H269.4z"/>
	<path d="M277.6,62.2v-8.1h1.1l2.6,4.1c0.6,0.9,1.1,1.8,1.5,2.6l0,0c-0.1-1.1-0.1-2.1-0.1-3.3v-3.4h1v8.1h-1.1l-2.6-4.1
		c-0.6-0.9-1.1-1.8-1.5-2.7l0,0c0.1,1,0.1,2,0.1,3.3v3.5H277.6z"/>
	<path d="M298,61.8c-0.5,0.2-1.4,0.4-2.5,0.4c-1.2,0-2.2-0.3-3-1.1c-0.7-0.7-1.1-1.8-1.1-3c0-2.4,1.7-4.2,4.4-4.2
		c0.9,0,1.7,0.2,2,0.4l-0.3,0.9c-0.4-0.2-1-0.3-1.8-0.3c-2,0-3.3,1.2-3.3,3.3c0,2.1,1.2,3.3,3.1,3.3c0.7,0,1.2-0.1,1.4-0.2v-2.4
		h-1.6V58h2.7V61.8z"/>
	<path d="M314.8,60.9c0.5,0.3,1.2,0.5,1.9,0.5c1.1,0,1.7-0.6,1.7-1.4c0-0.8-0.4-1.2-1.5-1.6c-1.3-0.5-2.1-1.2-2.1-2.3
		c0-1.3,1-2.2,2.6-2.2c0.8,0,1.4,0.2,1.8,0.4l-0.3,0.9c-0.3-0.1-0.8-0.4-1.5-0.4c-1.1,0-1.5,0.7-1.5,1.2c0,0.8,0.5,1.1,1.6,1.6
		c1.4,0.5,2.1,1.2,2.1,2.4c0,1.2-0.9,2.3-2.8,2.3c-0.8,0-1.6-0.2-2.1-0.5L314.8,60.9z"/>
	<path d="M334.1,58.1c0,2.8-1.7,4.3-3.8,4.3c-2.1,0-3.6-1.7-3.6-4.1c0-2.6,1.6-4.2,3.8-4.2C332.7,54,334.1,55.7,334.1,58.1z
		 M327.8,58.2c0,1.7,0.9,3.3,2.6,3.3c1.7,0,2.6-1.5,2.6-3.4c0-1.6-0.8-3.3-2.6-3.3C328.7,54.8,327.8,56.4,327.8,58.2z"/>
	<path d="M341.8,54.1h1v7.2h3.5v0.9h-4.5V54.1z"/>
	<path d="M354.4,54.1v4.8c0,1.8,0.8,2.6,1.9,2.6c1.2,0,2-0.8,2-2.6v-4.8h1.1v4.7c0,2.5-1.3,3.5-3.1,3.5c-1.7,0-2.9-0.9-2.9-3.5v-4.8
		H354.4z"/>
	<path d="M369.1,55h-2.5v-0.9h6V55h-2.5v7.2h-1.1V55z"/>
	<path d="M380.9,54.1v8.1h-1v-8.1H380.9z"/>
	<path d="M396,58.1c0,2.8-1.7,4.3-3.8,4.3c-2.1,0-3.6-1.7-3.6-4.1c0-2.6,1.6-4.2,3.8-4.2C394.6,54,396,55.7,396,58.1z M389.7,58.2
		c0,1.7,0.9,3.3,2.6,3.3c1.7,0,2.6-1.5,2.6-3.4c0-1.6-0.8-3.3-2.6-3.3C390.6,54.8,389.7,56.4,389.7,58.2z"/>
	<path d="M403.7,62.2v-8.1h1.1l2.6,4.1c0.6,0.9,1.1,1.8,1.5,2.6l0,0c-0.1-1.1-0.1-2.1-0.1-3.3v-3.4h1v8.1h-1.1l-2.6-4.1
		c-0.6-0.9-1.1-1.8-1.5-2.7l0,0c0.1,1,0.1,2,0.1,3.3v3.5H403.7z"/>
	<path d="M417.8,60.9c0.5,0.3,1.2,0.5,1.9,0.5c1.1,0,1.7-0.6,1.7-1.4c0-0.8-0.4-1.2-1.5-1.6c-1.3-0.5-2.1-1.2-2.1-2.3
		c0-1.3,1-2.2,2.6-2.2c0.8,0,1.4,0.2,1.8,0.4l-0.3,0.9c-0.3-0.1-0.8-0.4-1.5-0.4c-1.1,0-1.5,0.7-1.5,1.2c0,0.8,0.5,1.1,1.6,1.6
		c1.4,0.5,2.1,1.2,2.1,2.4c0,1.2-0.9,2.3-2.8,2.3c-0.8,0-1.6-0.2-2.1-0.5L417.8,60.9z"/>
</g>
<g class="st0">
	<path class="st1" d="M401.8,29.8h1.1v10.5h5.2v1h-6.4V29.8z"/>
	<path class="st1" d="M410.6,38.8v-4.7l-1.7-0.2v-0.7h1.7v-2.5h1.2v2.5h2.6V34l-2.6,0.2v4.6c0,1.4,0.5,1.9,1.5,1.9
		c0.3,0,0.6-0.1,0.9-0.2l0.2,0.9c-0.4,0.2-0.8,0.3-1.3,0.3C411.8,41.6,410.6,40.9,410.6,38.8z"/>
	<path class="st1" d="M419.1,41.6c-2.2,0-3.4-1.9-3.4-4.2c0-2.5,1.4-4.4,3.6-4.4c0.8,0,1.7,0.3,2.2,0.8V29h1.1v12.4h-1l-0.1-1
		C421,41.1,420.1,41.6,419.1,41.6z M421.4,38.2v-3.4c-0.3-0.4-1.1-0.9-2-0.9c-1.8,0-2.6,1.6-2.6,3.4c0,1.5,0.7,3.2,2.4,3.2
		C420.2,40.5,421.4,39.9,421.4,38.2z"/>
</g>
<g class="st0">
	<path d="M91,33.5l4.3,1.4c-0.7,2.4-1.7,4.2-3.3,5.3s-3.5,1.7-5.8,1.7c-2.9,0-5.3-1-7.2-3s-2.8-4.7-2.8-8.1c0-3.6,0.9-6.5,2.8-8.5
		c1.9-2,4.3-3,7.4-3c2.7,0,4.8,0.8,6.5,2.4c1,0.9,1.7,2.3,2.2,4l-4.4,1c-0.3-1.1-0.8-2-1.6-2.7c-0.8-0.7-1.8-1-3-1
		c-1.6,0-2.9,0.6-3.9,1.7c-1,1.2-1.5,3-1.5,5.7c0,2.8,0.5,4.7,1.5,5.9c1,1.2,2.3,1.8,3.9,1.8c1.2,0,2.2-0.4,3-1.1
		C90,36.3,90.6,35.1,91,33.5z"/>
	<path d="M109.4,41.5v-2.4c-0.6,0.8-1.3,1.5-2.3,2c-0.9,0.5-1.9,0.7-3,0.7c-1.1,0-2-0.2-2.9-0.7c-0.8-0.5-1.5-1.1-1.8-2
		s-0.6-2-0.6-3.5v-10h4.2V33c0,2.2,0.1,3.6,0.2,4.1c0.2,0.5,0.4,0.9,0.8,1.2c0.4,0.3,0.9,0.4,1.6,0.4c0.7,0,1.4-0.2,1.9-0.6
		c0.6-0.4,1-0.9,1.2-1.5c0.2-0.6,0.3-2,0.3-4.3v-6.7h4.2v15.8H109.4z"/>
	<path d="M124.9,25.7V29H122v6.4c0,1.3,0,2,0.1,2.3c0.1,0.2,0.2,0.4,0.4,0.5c0.2,0.1,0.4,0.2,0.7,0.2c0.4,0,0.9-0.1,1.7-0.4l0.4,3.3
		c-1,0.4-2.1,0.6-3.3,0.6c-0.8,0-1.4-0.1-2-0.4s-1.1-0.6-1.3-1c-0.3-0.4-0.5-0.9-0.6-1.6c-0.1-0.5-0.1-1.5-0.1-3V29h-1.9v-3.3h1.9
		v-3.1l4.2-2.4v5.6H124.9z"/>
	<path d="M135.1,25.7V29h-2.9v6.4c0,1.3,0,2,0.1,2.3c0.1,0.2,0.2,0.4,0.4,0.5c0.2,0.1,0.4,0.2,0.7,0.2c0.4,0,0.9-0.1,1.7-0.4
		l0.4,3.3c-1,0.4-2.1,0.6-3.3,0.6c-0.8,0-1.4-0.1-2-0.4s-1.1-0.6-1.3-1c-0.3-0.4-0.5-0.9-0.6-1.6c-0.1-0.5-0.1-1.5-0.1-3V29h-1.9
		v-3.3h1.9v-3.1l4.2-2.4v5.6H135.1z"/>
	<path d="M138,23.5v-3.9h4.2v3.9H138z M138,41.5V25.7h4.2v15.8H138z"/>
	<path d="M160.9,41.5h-4.2v-8.1c0-1.7-0.1-2.8-0.3-3.3c-0.2-0.5-0.5-0.9-0.9-1.2s-0.9-0.4-1.5-0.4c-0.7,0-1.4,0.2-2,0.6
		c-0.6,0.4-1,0.9-1.2,1.6s-0.3,1.9-0.3,3.6v7.2h-4.2V25.7h3.9V28c1.4-1.8,3.1-2.7,5.2-2.7c0.9,0,1.8,0.2,2.5,0.5
		c0.8,0.3,1.3,0.8,1.7,1.3c0.4,0.5,0.7,1.1,0.8,1.8c0.2,0.7,0.2,1.6,0.2,2.8V41.5z"/>
	<path d="M164.7,42.6l4.8,0.6c0.1,0.6,0.3,0.9,0.6,1.1c0.4,0.3,1,0.4,1.9,0.4c1.1,0,1.9-0.2,2.5-0.5c0.4-0.2,0.6-0.6,0.8-1.1
		c0.1-0.3,0.2-1,0.2-1.9V39c-1.3,1.7-2.8,2.6-4.7,2.6c-2.1,0-3.8-0.9-5.1-2.7c-1-1.4-1.5-3.2-1.5-5.3c0-2.7,0.6-4.7,1.9-6.1
		c1.3-1.4,2.9-2.1,4.8-2.1c2,0,3.6,0.9,4.8,2.6v-2.2h3.9v14.2c0,1.9-0.2,3.3-0.5,4.2c-0.3,0.9-0.7,1.6-1.3,2.2s-1.3,0.9-2.2,1.2
		c-0.9,0.3-2.1,0.4-3.5,0.4c-2.7,0-4.6-0.5-5.7-1.4c-1.1-0.9-1.7-2.1-1.7-3.5C164.7,42.9,164.7,42.8,164.7,42.6z M168.5,33.3
		c0,1.7,0.3,2.9,1,3.7c0.7,0.8,1.5,1.2,2.4,1.2c1,0,1.9-0.4,2.6-1.2c0.7-0.8,1.1-2,1.1-3.6c0-1.6-0.3-2.9-1-3.7
		c-0.7-0.8-1.5-1.2-2.6-1.2c-1,0-1.8,0.4-2.5,1.2C168.8,30.5,168.5,31.7,168.5,33.3z"/>
	<path d="M192.3,41.5V19.7h16.2v3.7h-11.8v4.8h11v3.7h-11v6h12.2v3.7H192.3z"/>
	<path d="M227.2,41.5h-3.9v-2.3c-0.6,0.9-1.4,1.6-2.3,2s-1.8,0.7-2.7,0.7c-1.8,0-3.4-0.7-4.7-2.2c-1.3-1.5-1.9-3.5-1.9-6.1
		c0-2.7,0.6-4.7,1.9-6.1c1.3-1.4,2.9-2.1,4.8-2.1c1.8,0,3.3,0.7,4.6,2.2v-7.9h4.2V41.5z M216,33.3c0,1.7,0.2,2.9,0.7,3.7
		c0.7,1.1,1.6,1.6,2.8,1.6c1,0,1.8-0.4,2.5-1.2c0.7-0.8,1-2,1-3.7c0-1.8-0.3-3.1-1-3.9c-0.7-0.8-1.5-1.2-2.5-1.2
		c-1,0-1.8,0.4-2.5,1.2C216.3,30.5,216,31.7,216,33.3z"/>
	<path d="M230.9,42.6l4.8,0.6c0.1,0.6,0.3,0.9,0.6,1.1c0.4,0.3,1,0.4,1.9,0.4c1.1,0,1.9-0.2,2.5-0.5c0.4-0.2,0.6-0.6,0.8-1.1
		c0.1-0.3,0.2-1,0.2-1.9V39c-1.3,1.7-2.8,2.6-4.7,2.6c-2.1,0-3.8-0.9-5.1-2.7c-1-1.4-1.5-3.2-1.5-5.3c0-2.7,0.6-4.7,1.9-6.1
		c1.3-1.4,2.9-2.1,4.8-2.1c2,0,3.6,0.9,4.8,2.6v-2.2h3.9v14.2c0,1.9-0.2,3.3-0.5,4.2c-0.3,0.9-0.7,1.6-1.3,2.2
		c-0.6,0.5-1.3,0.9-2.2,1.2c-0.9,0.3-2.1,0.4-3.5,0.4c-2.7,0-4.6-0.5-5.7-1.4c-1.1-0.9-1.7-2.1-1.7-3.5
		C230.9,42.9,230.9,42.8,230.9,42.6z M234.7,33.3c0,1.7,0.3,2.9,1,3.7s1.5,1.2,2.4,1.2c1,0,1.9-0.4,2.6-1.2c0.7-0.8,1.1-2,1.1-3.6
		c0-1.6-0.3-2.9-1-3.7c-0.7-0.8-1.5-1.2-2.6-1.2c-1,0-1.8,0.4-2.5,1.2S234.7,31.7,234.7,33.3z"/>
	<path d="M259.1,36.5l4.2,0.7c-0.5,1.5-1.4,2.7-2.5,3.5c-1.2,0.8-2.6,1.2-4.3,1.2c-2.8,0-4.8-0.9-6.1-2.7c-1-1.4-1.6-3.3-1.6-5.5
		c0-2.6,0.7-4.7,2.1-6.2s3.1-2.2,5.2-2.2c2.4,0,4.2,0.8,5.6,2.3s2,3.9,2,7.2H253c0,1.2,0.4,2.2,1,2.9c0.6,0.7,1.5,1,2.4,1
		c0.7,0,1.2-0.2,1.7-0.5C258.6,37.9,258.9,37.3,259.1,36.5z M259.4,32.3c0-1.2-0.3-2.1-0.9-2.8c-0.6-0.6-1.3-0.9-2.2-0.9
		c-0.9,0-1.7,0.3-2.3,1s-0.9,1.6-0.9,2.7H259.4z"/>
</g>
<g class="st0">
	<path class="st1" d="M275.5,41.5V19.7h7.1c2.7,0,4.4,0.1,5.2,0.3c1.3,0.3,2.3,1,3.1,2.1s1.3,2.5,1.3,4.3c0,1.3-0.2,2.5-0.7,3.4
		c-0.5,0.9-1.1,1.6-1.9,2.2c-0.8,0.5-1.5,0.9-2.3,1c-1.1,0.2-2.6,0.3-4.6,0.3h-2.9v8.2H275.5z M279.9,23.4v6.2h2.4
		c1.7,0,2.9-0.1,3.5-0.3c0.6-0.2,1-0.6,1.4-1.1s0.5-1.1,0.5-1.7c0-0.8-0.2-1.5-0.7-2c-0.5-0.5-1.1-0.8-1.8-1
		c-0.5-0.1-1.6-0.1-3.2-0.1H279.9z"/>
	<path class="st1" d="M299.8,41.5h-4.2V25.7h3.9v2.3c0.7-1.1,1.3-1.8,1.8-2.1s1.1-0.5,1.8-0.5c1,0,1.9,0.3,2.8,0.8l-1.3,3.7
		c-0.7-0.5-1.4-0.7-2-0.7c-0.6,0-1.1,0.2-1.5,0.5c-0.4,0.3-0.7,0.9-1,1.8s-0.4,2.6-0.4,5.3V41.5z"/>
	<path class="st1" d="M306.7,33.4c0-1.4,0.3-2.7,1-4c0.7-1.3,1.7-2.3,2.9-3c1.3-0.7,2.7-1,4.2-1c2.4,0,4.4,0.8,5.9,2.3
		s2.3,3.5,2.3,5.9c0,2.4-0.8,4.4-2.3,6c-1.5,1.6-3.5,2.4-5.8,2.4c-1.5,0-2.8-0.3-4.2-1s-2.3-1.6-3-2.9
		C307.1,36.8,306.7,35.2,306.7,33.4z M311,33.6c0,1.6,0.4,2.8,1.1,3.6c0.7,0.8,1.7,1.3,2.8,1.3s2-0.4,2.8-1.3c0.7-0.8,1.1-2,1.1-3.6
		c0-1.6-0.4-2.7-1.1-3.6c-0.7-0.8-1.7-1.3-2.8-1.3s-2,0.4-2.8,1.3C311.4,30.8,311,32,311,33.6z"/>
	<path class="st1" d="M330.5,25.7V41c0,2-0.1,3.4-0.4,4.3c-0.3,0.8-0.8,1.5-1.5,1.9c-0.8,0.5-1.7,0.7-2.9,0.7c-0.4,0-0.9,0-1.3-0.1
		c-0.5-0.1-1-0.2-1.6-0.3l0.7-3.6c0.2,0,0.4,0.1,0.6,0.1c0.2,0,0.3,0,0.5,0c0.4,0,0.8-0.1,1.1-0.3c0.3-0.2,0.5-0.4,0.5-0.7
		s0.1-1,0.1-2.3V25.7H330.5z M326.3,23.5v-3.9h4.2v3.9H326.3z"/>
	<path class="st1" d="M344,36.5l4.2,0.7c-0.5,1.5-1.4,2.7-2.5,3.5c-1.2,0.8-2.6,1.2-4.3,1.2c-2.8,0-4.8-0.9-6.1-2.7
		c-1-1.4-1.6-3.3-1.6-5.5c0-2.6,0.7-4.7,2.1-6.2s3.1-2.2,5.2-2.2c2.4,0,4.2,0.8,5.6,2.3c1.4,1.6,2,3.9,2,7.2h-10.5
		c0,1.2,0.4,2.2,1,2.9c0.6,0.7,1.5,1,2.4,1c0.7,0,1.2-0.2,1.7-0.5C343.4,37.9,343.8,37.3,344,36.5z M344.2,32.3
		c0-1.2-0.3-2.1-0.9-2.8c-0.6-0.6-1.3-0.9-2.2-0.9c-0.9,0-1.7,0.3-2.3,1s-0.9,1.6-0.9,2.7H344.2z"/>
	<path class="st1" d="M365.6,30.4l-4.1,0.7c-0.1-0.8-0.5-1.4-0.9-1.9c-0.5-0.4-1.1-0.6-1.9-0.6c-1,0-1.9,0.4-2.5,1.1
		s-0.9,1.9-0.9,3.6c0,1.9,0.3,3.2,0.9,4c0.6,0.8,1.5,1.2,2.5,1.2c0.8,0,1.4-0.2,2-0.7c0.5-0.5,0.9-1.2,1.1-2.3l4.1,0.7
		c-0.4,1.9-1.2,3.3-2.5,4.3c-1.2,1-2.8,1.4-4.9,1.4c-2.3,0-4.2-0.7-5.5-2.2c-1.4-1.5-2.1-3.5-2.1-6.1c0-2.6,0.7-4.6,2.1-6.1
		c1.4-1.5,3.3-2.2,5.6-2.2c1.9,0,3.5,0.4,4.6,1.2C364.3,27.4,365.1,28.7,365.6,30.4z"/>
	<path class="st1" d="M376.1,25.7V29h-2.9v6.4c0,1.3,0,2,0.1,2.3c0.1,0.2,0.2,0.4,0.4,0.5c0.2,0.1,0.4,0.2,0.7,0.2
		c0.4,0,0.9-0.1,1.7-0.4l0.4,3.3c-1,0.4-2.1,0.6-3.3,0.6c-0.8,0-1.4-0.1-2-0.4s-1.1-0.6-1.3-1c-0.3-0.4-0.5-0.9-0.6-1.6
		c-0.1-0.5-0.1-1.5-0.1-3V29h-1.9v-3.3h1.9v-3.1l4.2-2.4v5.6H376.1z"/>
	<path class="st1" d="M377.5,37l4.2-0.6c0.2,0.8,0.5,1.4,1.1,1.9c0.5,0.4,1.3,0.6,2.3,0.6c1.1,0,1.9-0.2,2.4-0.6
		c0.4-0.3,0.6-0.7,0.6-1.1c0-0.3-0.1-0.6-0.3-0.8c-0.2-0.2-0.7-0.4-1.4-0.6c-3.4-0.7-5.5-1.4-6.4-2c-1.3-0.9-1.9-2-1.9-3.6
		c0-1.4,0.5-2.5,1.6-3.5c1.1-0.9,2.8-1.4,5-1.4c2.2,0,3.8,0.4,4.8,1.1c1.1,0.7,1.8,1.8,2.2,3.1l-4,0.7c-0.2-0.6-0.5-1.1-1-1.4
		c-0.5-0.3-1.1-0.5-2-0.5c-1.1,0-1.9,0.2-2.4,0.5c-0.3,0.2-0.5,0.5-0.5,0.8c0,0.3,0.1,0.6,0.4,0.8c0.4,0.3,1.7,0.7,3.9,1.2
		c2.2,0.5,3.8,1.1,4.7,1.9c0.9,0.7,1.3,1.8,1.3,3.1c0,1.5-0.6,2.7-1.8,3.7s-3,1.6-5.4,1.6c-2.2,0-3.9-0.4-5.1-1.3
		C378.7,39.7,377.9,38.5,377.5,37z"/>
</g>
<g>
	<path class="st1" d="M34.2,0.5c0.7,8.5-3.4,14.7-9.9,19.4c-6.1,4.3-13,6.5-20.5,6.6c-2.6,0-4.2-0.4-2.9-3.7
		c1.6-4.1,3.2-7.9,6.4-11.1C9,12.9,6.8,15.6,9,16.2c2.1,0.6,4.3,0.1,6.3-0.8c6.6-3,10.7-8.1,12.8-14.9C29.1-0.2,32.5-0.1,34.2,0.5z"
		/>
	<path class="st1" d="M56.7,13.7c5.3,5.7,6,8.3,2.6,14.2C49.1,45.3,33.4,54,13.8,56.3c-4.1,0.5-5.5-3.6-8.6-6.4
		C29.2,47.1,48.7,38.7,56.7,13.7z"/>
	<path class="st1" d="M44.5,3.6c8.8,4,9,4.4,4.6,12.2c-9.7,17-24.8,25.1-43.9,26.8C0.7,43,0.4,40.3,0,37.2c-0.4-4,2.7-2.5,4.4-2.7
		C24.3,32.7,39.4,24.5,44.5,3.6z"/>
	<path class="st1" d="M36.3,62.6c-3.6,0.5-6.8,0.5-10.2,0c-0.5-0.1-1.1-0.1-1.4-0.3c-0.6-0.4-0.3-0.7,0.3-0.8
		c3.2-0.8,6.5-1.5,9.6-2.5c10.3-3.3,13.4-5.5,27-19.3C61.3,49.9,49.8,60.3,36.3,62.6z"/>
</g>
</svg>
