<?xml version="1.0" encoding="UTF-8"?>
<!DOCTYPE svg PUBLIC "-//W3C//DTD SVG 1.1//EN" "http://www.w3.org/Graphics/SVG/1.1/DTD/svg11.dtd">
<!-- Creator: CorelDRAW 2019 -->
<svg xmlns="http://www.w3.org/2000/svg" xml:space="preserve" width="200px" height="55px" version="1.1" style="shape-rendering:geometricPrecision; text-rendering:geometricPrecision; image-rendering:optimizeQuality; fill-rule:evenodd; clip-rule:evenodd"
viewBox="0 0 200 55.73"
 xmlns:xlink="http://www.w3.org/1999/xlink"
 xmlns:xodm="http://www.corel.com/coreldraw/odm/2003">
 <defs>
  <style type="text/css">
   <![CDATA[
    .fil0 {fill:black;fill-rule:nonzero}
    .fil1 {fill:#016DC0;fill-rule:nonzero}
    .fil2 {fill:#1C1C1C;fill-rule:nonzero}
   ]]>
  </style>
 </defs>
 <g id="Layer_x0020_1">
  <metadata id="CorelCorpID_0Corel-Layer"/>
  <path class="fil0" d="M27.87 0l0 0 0 0.01 0.36 0 0.36 0.01 0.36 0.01 0.35 0.02 0.36 0.01 0.35 0.03 0.35 0.03 0.01 0 0.35 0.03 0.35 0.04 0.35 0.04 0 0 0.34 0.05 0.01 0 0.34 0.05 0.35 0.05 0 0 0.34 0.06 0.34 0.07 0.34 0.06 0 0 0.34 0.08 0.34 0.07 0.34 0.08 0.33 0.09 0.34 0.08 0.33 0.1 0.33 0.09 0.33 0.1 0.32 0.1 0.33 0.11 0.32 0.11 0 0 0.32 0.12 0 0 0.32 0.12 0.32 0.12 0.31 0.13 0 0 0.32 0.13 0 0 0.31 0.13 0 0 0.31 0.14 0.31 0.14 0 0 0.3 0.14 0 0 0.3 0.15 0.31 0.16 0.29 0.15 0 0 0.3 0.16 0.3 0.16 0 0 0.29 0.17 0 0 0.29 0.17 0.29 0.17 0 0 0.28 0.18 0 0 0.29 0.18 0 0 0.28 0.18 0 0 0.28 0.19 0 0 0.27 0.19 0 0 0.28 0.19 0.27 0.19 0 0 0.27 0.2 0 0 0.27 0.2 0.26 0.21 0 0 0.26 0.21 0.26 0.21 0.26 0.21 0.25 0.22 0.25 0.22 0.25 0.22 0.25 0.23 0.24 0.23 0.24 0.23 0.24 0.23 0.07 0.08 0 0 0 0c1.42,1.43 2.68,3.01 3.77,4.72l0.25 0.39c0.61,-0.07 1.23,-0.11 1.87,-0.11 3.77,0 6.97,1.31 9.6,3.94 2.63,2.62 3.95,5.89 3.95,9.81 0,3.98 -1.3,7.25 -3.91,9.83 -2.61,2.57 -5.82,3.86 -9.64,3.86 -0.3,0 -0.61,-0.01 -0.9,-0.03l-0.07 0.12 -0.06 0.12 -0.06 0.12 -0.07 0.12 -0.06 0.12 -0.07 0.12 -0.06 0.11 -0.07 0.12 -0.07 0.12 -0.06 0.12 -0.07 0.11 -0.07 0.12 -0.07 0.11 -0.07 0.12 -0.07 0.11 0 0 -0.07 0.12 0 0 -0.07 0.11 -0.07 0.12 -0.07 0.11 -0.08 0.11 -0.07 0.12 -0.07 0.11 -0.01 0 -0.07 0.11 0 0 -0.07 0.11 -0.08 0.12 -0.08 0.11 -0.07 0.11 -0.08 0.11 -0.08 0.11 0 0 -0.07 0.11 -0.08 0.1 -0.08 0.11 -0.08 0.11 -0.08 0.11 0 0 -0.08 0.11 -0.08 0.1 -0.09 0.11 0 0 -0.08 0.11 -0.08 0.1 0 0 -0.08 0.11 0 0 -0.09 0.1 0 0 -0.08 0.11 0 0 -0.09 0.1 -0.08 0.11 0 0 -0.09 0.1 0 0 -0.08 0.1 0 0 -0.09 0.11 0 0 -0.09 0.1 -0.08 0.1 -0.09 0.1 -0.09 0.1 0 0 -0.09 0.1 0 0 -0.09 0.1 0 0 -0.09 0.1 0 0 -0.09 0.1 -0.09 0.1 -0.09 0.09 -0.09 0.1 0 0 -0.09 0.1 -0.1 0.1 -0.09 0.09 -0.09 0.1 -0.1 0.1 -0.09 0.09 -0.24 0.23 -0.24 0.24 -0.24 0.23 -0.25 0.22 -0.25 0.22 -0.25 0.22 0 0.01 -0.25 0.21 -0.26 0.22 -0.26 0.21 0 0 -0.26 0.21 0 0 -0.27 0.2 0 0 -0.26 0.2 -0.27 0.2 0 0 -0.27 0.2 -0.28 0.19 0 0 -0.27 0.19 0 0 -0.28 0.19 -0.28 0.18 -0.29 0.18 0 0 -0.28 0.17 0 0 -0.29 0.18 -0.29 0.16 0 0 -0.3 0.17 -0.29 0.16 -0.3 0.16 -0.3 0.16 -0.3 0.15 0 0c-0.2,0.1 -0.4,0.2 -0.6,0.29l0 0 -0.31 0.14 0 0 -0.31 0.14 -0.31 0.14 -0.32 0.13 0 0 -0.31 0.12 0 0 -0.32 0.13 -0.32 0.12 -0.32 0.11 -0.32 0.11 -0.33 0.11 -0.32 0.1 -0.33 0.1 0 0 -0.33 0.1 -0.33 0.09 -0.34 0.09 0 0 -0.33 0.08 0 0 -0.34 0.08 -0.33 0.08 0 0 -0.34 0.07 -0.34 0.07 -0.35 0.06 -0.34 0.06 0 0 -0.35 0.05 -0.34 0.05 -0.35 0.05 -0.35 0.04 -0.35 0.04 -0.35 0.03 -0.35 0.03 -0.01 0 -0.35 0.03 -0.35 0.02 -0.36 0.01 -0.36 0.02 0 0 -0.36 0 -0.36 0 0 0.01 0 0 -0.01 0 0 0 0 -0.01c-7.69,0 -14.66,-3.11 -19.7,-8.15l-0.23 -0.24 -0.23 -0.24 -0.23 -0.24 -0.23 -0.25 -0.22 -0.25 -0.22 -0.25 -0.22 -0.25 -0.22 -0.26 -0.21 -0.26 -0.2 -0.26 0 0 -0.21 -0.26 -0.2 -0.27 0 0 -0.2 -0.27 -0.2 -0.27 0 0 -0.19 -0.28 -0.19 -0.27 -0.18 -0.28 -0.18 -0.28 -0.18 -0.29 0 0 -0.18 -0.28 -0.17 -0.29 -0.17 -0.29 -0.17 -0.29 -0.16 -0.3 -0.16 -0.3 -0.15 -0.29 -0.16 -0.31 0 0 -0.15 -0.3 -0.14 -0.3 0 0 -0.14 -0.31 -0.14 -0.31 -0.13 -0.31 -0.13 -0.32 -0.13 -0.31 -0.12 -0.32 -0.12 -0.32 0 0 -0.12 -0.32 -0.11 -0.32 -0.11 -0.33 0 0 -0.1 -0.32 -0.1 -0.33 -0.1 -0.33 0 0 -0.09 -0.33 0 0 -0.08 -0.34 -0.01 0 -0.08 -0.33 -0.08 -0.34 0 0 -0.07 -0.33 -0.08 -0.34 0 0 -0.06 -0.34 0 0 -0.07 -0.35 0 0 -0.06 -0.34 0 0 -0.05 -0.34 0 0 -0.05 -0.35 -0.05 -0.35 0 0 -0.04 -0.35 0 0 -0.04 -0.35 0 0 -0.03 -0.35 -0.03 -0.35 -0.03 -0.36 0 0 -0.02 -0.35 0 0 -0.01 -0.36 0 0 -0.01 -0.36 0 0 -0.01 -0.36 0 0 0 -0.36 0 0 -0.01 0 0 0 0 -0.01 0.01 0 0 0 0 -0.36 0 0 0.01 -0.36 0 0 0.01 -0.35 0.01 -0.36 0 0 0.02 -0.36 0.03 -0.35 0 0 0.03 -0.35 0 0 0.03 -0.36 0.04 -0.35 0.04 -0.35 0 0 0.05 -0.34 0 0 0.05 -0.35 0 0 0.05 -0.35 0 0 0.06 -0.34 0.07 -0.34 0 0 0.06 -0.34 0 0 0.08 -0.34 0.07 -0.34 0.08 -0.34 0.08 -0.33 0.09 -0.34 0.09 -0.33 0.1 -0.33 0 0 0.1 -0.32 0.1 -0.33 0.11 -0.33 0.11 -0.32 0.12 -0.32 0.12 -0.32 0.12 -0.32 0.13 -0.31 0.13 -0.32 0 0 0.13 -0.3 0.14 -0.31 0.14 -0.31 0.14 -0.31 0.15 -0.3 0.16 -0.3 0.15 -0.3 0.16 -0.3 0.16 -0.29 0.17 -0.3 0.17 -0.29 0.17 -0.29 0.18 -0.28 0.18 -0.29 0.18 -0.28 0.19 -0.28 0.18 -0.27 0.19 -0.28 0.2 -0.27 0.2 -0.27 0.2 -0.26 0.21 -0.27 0.21 -0.26 0.21 -0.26 0.21 -0.26 0.22 -0.25 0.22 -0.25 0.22 -0.25 0.23 -0.25 0.23 -0.24 0.23 -0.24 0.23 -0.24 0.24 -0.23 0.24 -0.23 0.24 -0.23 0.25 -0.23 0.25 -0.22 0.25 -0.22 0.25 -0.22 0.26 -0.22 0.26 -0.2 0 0 0.26 -0.21 0.27 -0.21 0.26 -0.2 0.27 -0.2 0.27 -0.2 0.28 -0.19 0.27 -0.19 0.28 -0.18 0.29 -0.18 0.28 -0.18 0.28 -0.18 0 0 0.29 -0.17 0.29 -0.17 0.3 -0.17 0.29 -0.16 0.3 -0.16 0 0 0.3 -0.15 0.3 -0.16 0.3 -0.15 0 0 0.31 -0.14 0.31 -0.14 0 0 0.3 -0.14 0.01 0 0.3 -0.13 0 0 0.32 -0.13 0.31 -0.13 0 0 0.32 -0.12 0 0 0.32 -0.12 0 0 0.32 -0.12 0 0 0.32 -0.11 0 0 0.33 -0.11 0 0 0.33 -0.1 0 0 0.32 -0.1 0.33 -0.09 0 0 0.33 -0.1 0 0 0.34 -0.08 0 0 0.33 -0.09 0.34 -0.08 0 0 0.34 -0.07 0 0 0.33 -0.08 0 0 0.34 -0.06 0 0 0.35 -0.07 0 0 0.34 -0.06 0 0 0.35 -0.05 0 0 0.34 -0.05 0 0 0.35 -0.05 0 0 0.35 -0.04 0 0 0.35 -0.04 0 0 0.35 -0.03 0 0 0.35 -0.03 0.01 0 0.35 -0.03 0 0 0.36 -0.01 0 0 0.35 -0.02 0 0 0.36 -0.01 0 0 0.36 -0.01 0 0 0.36 0 0 -0.01 0 0 0 0 0.01 0zm-23.9 24.46l5.55 0 0 -9.79 13.8 0 0 9.79 2.76 0 0 -9.79 13.8 0 0 12.17 -36.12 0 -0.01 0.09 -0.01 0.31 -0.01 0.31 0 0.31 0.01 0 0 0.01 0 0 -0.01 0 0 0.31 0.01 0.31 0 0 0.01 0.31 0.01 0.09 36.12 0 0 12.17 -13.8 0 0 -9.79 -2.76 0 0 9.79 -13.8 0 0 -9.79 -5.55 0 0.04 0.27 0.05 0.3 0.05 0.3 0 0 0.06 0.29 0 0 0.05 0.3 0.07 0.29 0.06 0.29 0 0 0.07 0.29 0.07 0.3 0.08 0.28 0.08 0.29 0.08 0.29 0.09 0.28 0.09 0.28 0.09 0.28 0.1 0.28 0.1 0.28 0.1 0.28 0.11 0.27 0 0 0.11 0.27 0.11 0.27 0 0.01 0.12 0.26 0.12 0.27 0.12 0.27 0 0 0.13 0.26 0 0 0.12 0.27 0 0 0.14 0.26 0.13 0.26 0.14 0.25 0.14 0.26 0.14 0.25 0 0 0.15 0.25 0.15 0.25 0 0 0.15 0.25 0.16 0.25 0.16 0.24 0.16 0.24 0 0 0.16 0.24 0 0 0.17 0.24 0.17 0.23 0 0 0.17 0.24 0 0 0.18 0.23 0 0 0.17 0.23 0 0 0.18 0.22 0 0 0.19 0.23 0.18 0.22 0 0 0.19 0.22 0 0 0.19 0.22 0 0 0.2 0.22 0 0 0.19 0.21 0 0 0.2 0.21 0 0 0.2 0.21 0 0 0.21 0.2 0 0 0.2 0.21 0 0 0.21 0.2 0 0 0.21 0.2 0 0 0.21 0.19 0 0 0.22 0.2 0.22 0.19 0 0 0.22 0.19 0 0 0.22 0.18 0 0 0.23 0.19 0 0 0.22 0.18 0 0 0.23 0.17 0 0 0.23 0.18 0 0 0.24 0.17 0 0 0.23 0.17 0 0 0.24 0.17 0.24 0.16 0.24 0.17 0.25 0.15 0.24 0.16 0 0 0.25 0.15 0.25 0.15 0.25 0.15 0.25 0.14 0 0 0.26 0.14 0.26 0.14 0.26 0.14 0 0 0.26 0.13 0 0 0.26 0.13 0.26 0.12 0.27 0.13 0.27 0.11 0.27 0.12 0 0 0.27 0.11 0.27 0.11 0.28 0.11 0.27 0.1 0.28 0.1 0.28 0.1 0.28 0.09 0.28 0.09 0.29 0.09 0.28 0.08 0.29 0.08 0.29 0.08 0.29 0.07 0.29 0.07 0.29 0.07 0.3 0.06 0.29 0.06 0.3 0.05 0.29 0.05 0.3 0.05 0.3 0.04 0.3 0.04 0.3 0.04 0.31 0.03 0.3 0.03 0.31 0.03 0.31 0.02 0.3 0.02 0.31 0.01 0.31 0.01 0.31 0.01 0.31 0 0 -0.01 0 0 0.01 0 0 0 0 0.01 0.31 0 0.31 -0.01 0 0 0.31 -0.01 0.31 -0.01 0.31 -0.02 0.31 -0.02 0.3 -0.03 0.31 -0.03 0.3 -0.03 0.3 -0.04 0 0 0.3 -0.04 0.3 -0.04 0.3 -0.05 0.3 -0.05 0 0 0.29 -0.05 0 0 0.3 -0.06 0 0 0.29 -0.06 0 0 0.29 -0.07 0 0 0.29 -0.07 0.29 -0.07 0.29 -0.08 0.29 -0.08 0.29 -0.08 0.28 -0.09 0 0 0.28 -0.09 0 0 0.28 -0.09 0.28 -0.1 0.28 -0.1 0.27 -0.1 0.28 -0.11 0.27 -0.11 0.27 -0.11 0.27 -0.12 0.27 -0.12 0.27 -0.12 0.26 -0.12 0.26 -0.13 0.27 -0.13 0.26 -0.14 0.25 -0.14 0.26 -0.14 0.25 -0.14 0.25 -0.15 0.25 -0.15 0.25 -0.15 0.25 -0.16 0.24 -0.15 0.24 -0.17 0.24 -0.16 0 0 0.24 -0.17 0.23 -0.17 0.24 -0.17 0 0 0.23 -0.18 0 0 0.23 -0.17 0.22 -0.18 0 0 0.23 -0.19 0.22 -0.18 0 0 0.22 -0.19 0.22 -0.19 0 0 0.21 -0.2 0.01 0 0.21 -0.19 0 0 0.21 -0.2 0 0 0.21 -0.2 0 0 0.2 -0.21 0 0 0.07 -0.06 0 0c1.4,-1.42 2.74,-3.2 3.77,-4.93l0.02 -0.02c-1.83,-0.64 -3.46,-1.68 -4.9,-3.11 -2.59,-2.59 -3.89,-5.86 -3.89,-9.81 0,-3.94 1.3,-7.22 3.91,-9.83 1.2,-1.2 2.52,-2.13 3.97,-2.78 -0.2,-0.31 -0.42,-0.61 -0.65,-0.91 -0.71,-0.92 -1.51,-1.86 -2.19,-2.56l0 0 -0.05 -0.05 0 0 -0.06 -0.05 -0.2 -0.21 -0.21 -0.2 -0.21 -0.19 -0.21 -0.2 -0.22 -0.19 -0.22 -0.2 -0.22 -0.18 -0.22 -0.19 -0.22 -0.18 -0.23 -0.18 -0.23 -0.18 -0.23 -0.18 -0.24 -0.17 -0.23 -0.17 -0.24 -0.17 -0.24 -0.16 -0.24 -0.16 -0.24 -0.16 0 0 -0.25 -0.16 -0.25 -0.15 0 0 -0.25 -0.15 -0.25 -0.15 0 0 -0.25 -0.14 -0.26 -0.14 -0.25 -0.14 0 0 -0.26 -0.13 -0.26 -0.14 -0.01 0 -0.26 -0.12 0 0 -0.26 -0.13 -0.27 -0.12 -0.27 -0.12 -0.27 -0.12 0 0 -0.27 -0.11 -0.27 -0.11 -0.28 -0.11 0 0 -0.27 -0.1 -0.28 -0.1 -0.28 -0.1 -0.28 -0.09 0 0 -0.28 -0.09 -0.29 -0.09 -0.28 -0.08 -0.29 -0.08 -0.29 -0.08 -0.29 -0.07 0 0 -0.29 -0.07 0 0 -0.29 -0.06 0 0 -0.29 -0.07 0 0 -0.3 -0.05 -0.3 -0.06 -0.29 -0.05 0 0 -0.3 -0.05 -0.3 -0.04 -0.3 -0.04 -0.3 -0.04 0 0 -0.31 -0.03 -0.3 -0.03 -0.31 -0.03 -0.3 -0.02 -0.31 -0.01 -0.31 -0.02 -0.31 -0.01 -0.31 0 -0.31 -0.01 0 0.01 0 0 -0.01 0 0 0 0 -0.01 -0.31 0.01 0 0 -0.31 0 0 0 -0.31 0.01 0 0 -0.31 0.02 -0.31 0.01 0 0 -0.3 0.02 0 0 -0.31 0.03 -0.3 0.03 0 0 -0.31 0.03 -0.3 0.04 0 0 -0.3 0.04 0 0 -0.3 0.04 -0.3 0.05 -0.3 0.05 0 0 -0.29 0.06 0 0 -0.3 0.05 0 0 -0.29 0.07 0 0 -0.29 0.06 -0.29 0.07 0 0 -0.29 0.08 -0.29 0.07 -0.29 0.08 0 0 -0.28 0.08 0 0 -0.29 0.09 -0.28 0.09 -0.28 0.09 0 0 -0.28 0.1 -0.28 0.1 -0.27 0.1 0 0 -0.28 0.11 -0.27 0.11 0 0 -0.27 0.11 -0.27 0.12 0 0 -0.27 0.12 0 0 -0.27 0.12 -0.26 0.13 -0.26 0.12 -0.26 0.14 0 0 -0.26 0.13 -0.26 0.14 0 0 -0.26 0.14 -0.25 0.14 -0.25 0.15 0 0 -0.25 0.15 0 0 -0.25 0.15 -0.24 0.16 -0.25 0.16 -0.24 0.16 -0.24 0.16 0 0 -0.24 0.17 -0.23 0.17 -0.24 0.17 0 0 -0.23 0.18 0 0 -0.23 0.17 0 0 -0.22 0.18 0 0.01 -0.23 0.18 -0.22 0.18 0 0 -0.22 0.19 0 0 -0.22 0.19 -0.21 0.2 0 0 -0.22 0.19 -0.21 0.2 0 0 -0.2 0.2 0 0 -0.21 0.21 0 0 -0.21 0.2 -0.2 0.21 0 0 -0.19 0.21 0 0 -0.2 0.21 -0.2 0.22 0 0 -0.19 0.22 0 0 -0.19 0.22 0 0 -0.18 0.22 0 0 -0.18 0.23 -0.19 0.22 0 0 -0.17 0.23 0 0 -0.18 0.23 0 0 -0.17 0.24 -0.17 0.23 0 0 -0.17 0.24 -0.16 0.24 -0.16 0.24 0 0 -0.16 0.25 -0.16 0.24 -0.15 0.25 -0.15 0.25 0 0 -0.15 0.25 0 0 -0.14 0.25 0 0 -0.14 0.26 -0.14 0.26 -0.13 0.26 -0.14 0.26 0 0 -0.12 0.26 0 0 -0.13 0.27 -0.12 0.26 -0.12 0.27 -0.12 0.27 -0.11 0.27 -0.11 0.27 -0.11 0.28 -0.1 0.27 0 0 -0.1 0.28 -0.1 0.28 -0.09 0.28 -0.09 0.28 -0.09 0.29 -0.08 0.28 -0.08 0.29 -0.08 0.29 -0.07 0.29 -0.07 0.29 -0.06 0.29 -0.07 0.3 -0.05 0.29 -0.06 0.3 -0.05 0.29 -0.05 0.3 -0.04 0.27zm56.5 2.53c0,-2.01 -0.68,-3.72 -2.03,-5.14 -1.36,-1.41 -3,-2.11 -4.91,-2.11 -1.9,0 -3.53,0.71 -4.88,2.13 -1.34,1.43 -2.02,3.14 -2.02,5.12 0,1.97 0.68,3.66 2.02,5.09 1.35,1.42 2.98,2.14 4.88,2.14 1.89,0 3.51,-0.72 4.89,-2.14 1.37,-1.43 2.05,-3.12 2.05,-5.09zm26.46 5.35c0,2.48 -0.84,4.36 -2.53,5.66 -1.49,1.17 -3.46,1.76 -5.91,1.76l-10.2 0 0 -25.72 9.47 0c4.57,0 6.86,2.31 6.86,6.92 0,2.32 -0.89,4.01 -2.68,5.08 3.33,0.66 4.99,2.76 4.99,6.3zm-8.11 -10.69c0,-1.1 -0.48,-1.82 -1.43,-2.18 -0.56,-0.23 -1.48,-0.35 -2.75,-0.35l0 5.05c1.32,0 2.24,-0.1 2.75,-0.31 0.95,-0.36 1.43,-1.09 1.43,-2.21zm1.69 10.24c0,-1.2 -0.48,-1.99 -1.43,-2.37 -0.56,-0.23 -1.54,-0.35 -2.94,-0.35l-1.5 0 0 5.39 1.43 0c2.96,0 4.44,-0.89 4.44,-2.67zm34.76 -4.9c0,3.98 -1.3,7.25 -3.91,9.83 -2.61,2.57 -5.82,3.86 -9.63,3.86 -3.85,0 -7.06,-1.3 -9.66,-3.88 -2.59,-2.59 -3.89,-5.86 -3.89,-9.81 0,-3.94 1.3,-7.22 3.91,-9.83 2.61,-2.61 5.82,-3.92 9.64,-3.92 3.76,0 6.96,1.31 9.59,3.94 2.63,2.62 3.95,5.89 3.95,9.81zm-6.61 0c0,-2.01 -0.68,-3.72 -2.03,-5.14 -1.36,-1.41 -3,-2.11 -4.9,-2.11 -1.91,0 -3.54,0.71 -4.89,2.13 -1.34,1.43 -2.01,3.14 -2.01,5.12 0,1.97 0.67,3.66 2.01,5.09 1.35,1.42 2.98,2.14 4.89,2.14 1.88,0 3.51,-0.72 4.88,-2.14 1.37,-1.43 2.05,-3.12 2.05,-5.09zm22.61 12.77l-13.91 0 0 -25.72 13.91 0 0 5.66 -7.56 0 0 4.28 7.16 0 0 5.65 -7.16 0 0 4.47 7.56 0 0 5.66zm-91.02 13.07c-0.2,0.1 -0.4,0.2 -0.6,0.29l0.6 -0.29z"/>
  <path class="fil1" d="M146.08 27.01l-3.22 0 0 11.91 -5.63 0 0 -11.91 -1.91 0 0 -4.98 1.91 0 0 -5.04 5.63 0 0 5.04 3.22 0 0 4.98zm17.87 4.57l-11.93 0c0.05,2.53 1.22,3.8 3.5,3.8 1.19,0 2.09,-0.54 2.73,-1.62l5.45 0c-0.54,1.94 -1.55,3.41 -3.04,4.42 -1.37,0.93 -3.06,1.4 -5.06,1.4 -2.74,0 -4.96,-0.78 -6.66,-2.32 -1.77,-1.62 -2.66,-3.84 -2.66,-6.64 0,-2.9 0.85,-5.15 2.56,-6.74 1.65,-1.53 3.89,-2.29 6.72,-2.29 2.79,0 4.91,0.96 6.37,2.88 1.35,1.74 2.02,4.11 2.02,7.11zm-5.27 -3.46c-0.41,-1.8 -1.48,-2.69 -3.23,-2.69 -1.91,0 -3,0.89 -3.29,2.69l6.52 0zm19.9 10.39c-1.42,0.64 -2.75,0.96 -4,0.96 -2.48,0 -4.56,-0.86 -6.23,-2.58 -1.68,-1.72 -2.52,-3.87 -2.52,-6.45 0,-2.58 0.9,-4.72 2.69,-6.41 1.73,-1.68 3.83,-2.51 6.31,-2.51 1.36,0 2.62,0.31 3.75,0.92l0 5.09c-0.99,-0.72 -1.91,-1.07 -2.76,-1.07 -1.18,0 -2.16,0.36 -2.92,1.08 -0.77,0.73 -1.15,1.71 -1.15,2.94 0,1.2 0.37,2.19 1.11,2.96 0.74,0.78 1.69,1.16 2.85,1.16 1.06,0 2.02,-0.38 2.87,-1.14l0 5.05zm20.03 0.41l-5.66 0c0,-0.32 0.05,-1.22 0.16,-2.68 0.1,-1.46 0.16,-2.64 0.16,-3.55 0,-4.18 -0.98,-6.27 -2.94,-6.27 -0.97,0 -1.71,0.32 -2.22,0.94 -0.5,0.63 -0.76,1.46 -0.76,2.49l0 9.07 -5.63 0 0 -27.28 5.63 0 0 12.53c1.33,-1.64 3.06,-2.47 5.21,-2.47 1.93,0 3.42,0.58 4.48,1.72 1.05,1.14 1.57,2.73 1.57,4.77l0 10.73z"/>
  <path class="fil2" d="M170.93 51.02l-0.65 0c-0.34,-0.53 -0.6,-1.09 -0.78,-1.67 -0.17,-0.58 -0.26,-1.14 -0.26,-1.68 0,-0.68 0.11,-1.31 0.33,-1.91 0.19,-0.53 0.43,-1.01 0.73,-1.45l0.64 0c-0.31,0.71 -0.52,1.31 -0.63,1.8 -0.11,0.5 -0.17,1.02 -0.17,1.57 0,0.39 0.03,0.78 0.1,1.18 0.07,0.4 0.16,0.78 0.28,1.14 0.08,0.24 0.21,0.58 0.41,1.02zm0.73 -1.5l0 -5.12 1.59 0c0.6,0 0.99,0.03 1.17,0.08 0.29,0.08 0.52,0.24 0.71,0.5 0.19,0.26 0.29,0.59 0.29,0.99 0,0.32 -0.06,0.58 -0.17,0.8 -0.11,0.21 -0.25,0.38 -0.41,0.5 -0.17,0.12 -0.34,0.21 -0.52,0.24 -0.23,0.05 -0.58,0.08 -1.02,0.08l-0.65 0 0 1.93 -0.99 0zm0.99 -4.25l0 1.45 0.54 0c0.39,0 0.65,-0.03 0.78,-0.08 0.14,-0.06 0.24,-0.14 0.31,-0.25 0.08,-0.12 0.12,-0.25 0.12,-0.4 0,-0.19 -0.06,-0.34 -0.16,-0.46 -0.11,-0.12 -0.24,-0.2 -0.4,-0.23 -0.12,-0.02 -0.35,-0.03 -0.71,-0.03l-0.48 0zm4.55 4.25l-1.43 -3.71 0.98 0 0.67 1.89 0.2 0.64c0.05,-0.17 0.08,-0.27 0.1,-0.32 0.03,-0.11 0.06,-0.21 0.1,-0.32l0.67 -1.89 0.97 0 -1.41 3.71 -0.85 0zm4.46 -3.71l0 0.78 -0.64 0 0 1.5c0,0.3 0.01,0.48 0.02,0.53 0.01,0.05 0.04,0.09 0.08,0.12 0.05,0.03 0.1,0.05 0.16,0.05 0.09,0 0.22,-0.03 0.38,-0.1l0.08 0.76c-0.22,0.1 -0.47,0.15 -0.74,0.15 -0.17,0 -0.33,-0.03 -0.46,-0.09 -0.14,-0.06 -0.24,-0.13 -0.3,-0.23 -0.06,-0.09 -0.11,-0.22 -0.13,-0.38 -0.02,-0.11 -0.03,-0.35 -0.03,-0.69l0 -1.62 -0.43 0 0 -0.78 0.43 0 0 -0.73 0.94 -0.58 0 1.31 0.64 0zm0.66 3.71l0 -0.98 0.94 0 0 0.98 -0.94 0zm1.64 1.5c0.19,-0.41 0.31,-0.73 0.39,-0.95 0.08,-0.22 0.15,-0.48 0.21,-0.77 0.07,-0.28 0.11,-0.56 0.14,-0.82 0.04,-0.25 0.05,-0.52 0.05,-0.8 0,-0.55 -0.05,-1.07 -0.17,-1.57 -0.11,-0.49 -0.32,-1.09 -0.63,-1.8l0.64 0c0.34,0.51 0.6,1.04 0.79,1.6 0.18,0.56 0.28,1.13 0.28,1.7 0,0.49 -0.08,1.01 -0.23,1.57 -0.16,0.62 -0.44,1.23 -0.82,1.84l-0.65 0zm4.48 -1.5l0 -5.08 0.99 0 0 4.21 2.46 0 0 0.87 -3.45 0zm5.78 -3.71l0 0.78 -0.64 0 0 1.5c0,0.3 0,0.48 0.02,0.53 0.01,0.05 0.04,0.09 0.08,0.12 0.04,0.03 0.1,0.05 0.16,0.05 0.09,0 0.21,-0.03 0.38,-0.1l0.08 0.76c-0.22,0.1 -0.47,0.15 -0.74,0.15 -0.17,0 -0.33,-0.03 -0.46,-0.09 -0.14,-0.06 -0.24,-0.13 -0.3,-0.23 -0.07,-0.09 -0.11,-0.22 -0.14,-0.38 -0.01,-0.11 -0.02,-0.35 -0.02,-0.69l0 -1.62 -0.44 0 0 -0.78 0.44 0 0 -0.73 0.94 -0.58 0 1.31 0.64 0zm3.91 3.71l-0.87 0 0 -0.55c-0.14,0.22 -0.32,0.37 -0.51,0.48 -0.2,0.1 -0.4,0.15 -0.6,0.15 -0.41,0 -0.76,-0.17 -1.05,-0.52 -0.29,-0.34 -0.44,-0.82 -0.44,-1.43 0,-0.63 0.14,-1.11 0.43,-1.43 0.28,-0.33 0.64,-0.49 1.07,-0.49 0.4,0 0.74,0.17 1.03,0.51l0 -1.84 0.94 0 0 5.12zm-2.51 -1.94c0,0.4 0.06,0.69 0.16,0.86 0.15,0.26 0.36,0.39 0.64,0.39 0.21,0 0.4,-0.1 0.55,-0.29 0.15,-0.19 0.22,-0.48 0.22,-0.86 0,-0.43 -0.07,-0.73 -0.21,-0.92 -0.15,-0.19 -0.34,-0.28 -0.57,-0.28 -0.22,0 -0.41,0.09 -0.56,0.28 -0.15,0.18 -0.23,0.46 -0.23,0.82zm3.44 1.94l0 -0.98 0.94 0 0 0.98 -0.94 0z"/>
 </g>
</svg>
